<svg xmlns="http://www.w3.org/2000/svg" viewBox="0 0 68.73 68.3625" x="0px" y="0px"><path d="m68.73,15.84c0-.17-.08-.32-.22-.41L45.89.09h0s-.13-.09-.13-.09h-22.79l-.13.09h0S.22,15.42.22,15.42c-.14.09-.22.25-.22.41v4.67c0,.13.06.25.16.34h0s33.87,33.83,33.87,33.83l.14-.13h.43l.14.13,33.87-33.82h0c.09-.1.16-.22.16-.35v-4.67Zm-24.36,27.8l-.52.35,2.73-3.2,2.02-1.38-4.24,4.23ZM1,18.8l1.05-.72-1.05,1.14v-.42ZM23.28,1h1.97l-11.44,7.82-1.03-.7L23.07,1.14l.21-.14Zm44.45,16.56l-.94.64-.75-.81,1.69-1.15v1.32Zm-31.24,31.46l-3.16,2.15-.5-.99,4.68-3.2-1.03,2.03Zm-.93,1.85l-1.19,2.35-.58-1.14,1.77-1.21Zm2.9-5.74l-6.07,4.15-.51-1,7.63-5.22-1.05,2.07Zm1.97-3.9h0s-9,6.16-9,6.16l-.48-.96,10.49-7.17-1,1.97Zm1.93-3.83l-11.88,8.12-.48-.95,13.35-9.13-.99,1.96Zm1.92-3.81l-14.74,10.08-.5-.98,16.26-11.12-1.02,2.02Zm-31.01-5.35l.12-.14,8.97-6.18-.06,1.36-7.71,5.27-.16-.04-1.17-.26Zm40.96-1.46l-3.65,2.5.04.05-3.06.69,5.97-4.08.71.84Zm-7.56,2.63l-.05-1.29,5.55-3.8.71.84-6.21,4.24Zm-.1-2.46l-.05-1.29,4.3-2.94.71.84-4.96,3.39Zm-.1-2.46l-.05-1.29,3.05-2.09.71.84-3.71,2.53Zm-.1-2.46l-.05-1.29,1.8-1.23.71.84-2.46,1.68Zm-.1-2.46l-.05-1.29.55-.38.71.84-1.21.83Zm-.81-4.32h-2.21l11.56-7.91,1.15.78-10.5,7.12Zm-3.98,0h-1.93l13.41-9.17.97.66-12.44,8.51Zm-3.7,0h-1.94l15.25-10.43.97.66-14.29,9.77Zm-3.71,0h-1.87L49.22,3.56l.97.66-16.13,11.03Zm-3.64,0h-1.94L47.36,2.3l.97.66-17.92,12.3Zm14.71,1l.58,14.1h-22.69l.58-14.1h21.52Zm-22.92,9.64l-4.81,3.29-1.45-.33,6.32-4.33-.06,1.36Zm-.05,1.25l-.06,1.36-1.92,1.31-1.45-.33,3.43-2.35Zm-.11,2.61l-.02.49-.52-.12.54-.37Zm.48-11.68l-1.64,1.12,1.67-1.99-.04.87Zm-4.03,3.97l3.98-2.72-.06,1.36-6.6,4.55,2.68-3.19Zm5.09,9.32h1.74l-1.5,1.03-.45-.89.21-.14Zm3.51,0h1.93l-4.26,2.91-.5-.98,2.82-1.93Zm3.71,0h1.93l-7.01,4.8-.5-.98,5.58-3.81Zm3.71,0h1.93l-9.77,6.68-.5-.98,8.33-5.7Zm3.7,0h1.95l-12.49,8.67-.55-1.09,11.08-7.58Zm3.71,0h1.93l-15.27,10.45-.44-.88,13.79-9.57Zm11.16-2.56l1.79-1.22.58.69-1.17.26-1.19.27Zm3.37-.89l-10.1-12.03,10.41-7.08,10.7,11.64-11.01,7.47Zm8.9-11.24l-.75-.81,1.36-.93.97.66-1.58,1.08Zm-1.43-1.56l-.75-.81.93-.63.97.66-1.15.79Zm-1.43-1.56l-.75-.81.5-.34.97.66-.72.49Zm-1.43-1.56l-.75-.81.07-.04.97.66-.29.2ZM46.47,1.69l-19.76,13.56h-1.97L45.51,1.04l.14.1.82.56Zm-23.35,13.45l-.99-.67L41.84,1h1.95l-20.67,14.14Zm-1.87-1.27l-1.01-.68L38.04,1h2.04l-18.82,12.87Zm-1.9-1.29l-.9-.61L34.52,1h1.75l-16.91,11.59Zm-1.79-1.22l-1-.68L30.73,1h2.02l-15.18,10.37Zm-1.89-1.28l-.97-.66L27.02,1h1.93l-13.29,9.09Zm6.72,5.77l-9.67,11.51-.61.42L1.26,20.42l10.7-11.64,10.42,7.07ZM5.6,24.57l-.19.13-.82-.82,1.01.68Zm.89.6l.97.66-.55.37-.79-.79.36-.25Zm1.86,1.26l.94.64-.92.58-.73-.73.72-.49Zm1.85,1.25l1.03.7-1.26.87-.87-.87,1.1-.7Zm1.89,1.31l.68.8-1.34.92-.75-.75,1.41-.97Zm1.33,1.56l.71.83-1.2.82-.79-.78,1.27-.87Zm1.37,1.6l.71.84-1.06.72-.79-.78,1.13-.77Zm1.37,1.6l.77.9-.91.62-.85-.85.99-.68Zm1.42,1.67l.79.92-.75.54-.88-.88.85-.58Zm1.44,1.68l.67.79-.62.44-.73-.73.69-.49Zm1.32,1.55l.63.74-.5.34-.69-.69.56-.39Zm1.29,1.51l.8.93-.35.24-.88-.88.43-.29Zm1.45,1.7l.72.84-.21.14-.79-.79.28-.19Zm1.37,1.6l.59.69-.08.05-.65-.65.14-.1Zm-10.73-14.11l8.44,1.91,9.88,19.55L13.72,29.38Zm32.85,1.91l8.47-1.91-18.35,21.47,9.88-19.56Zm5.89,4.27l-3.39,2.32,2.8-3.28,4.94-3.38-4.35,4.34Zm8.21-8.2l-6.31,4.32,2.34-2.74,5.66-3.84,1.78-1.21-3.47,3.46Zm6.8-8.4l.26-.17v.45l-.26-.28ZM8.62,10.93l-3.58,3.89-4.04,2.76v-1.49s7.62-5.17,7.62-5.17Zm17.06,34.02h.01s.12.14.12.14l-.14-.14Z"/><text x="0" y="69.69" fill="#000000" font-size="5px" font-weight="bold" font-family="'Helvetica Neue', Helvetica, Arial-Unicode, Arial, Sans-serif">Created by Joe Biggs</text><text x="0" y="74.69" fill="#000000" font-size="5px" font-weight="bold" font-family="'Helvetica Neue', Helvetica, Arial-Unicode, Arial, Sans-serif">from the Noun Project</text></svg>